<?xml version="1.0" standalone="no"?>
<!DOCTYPE svg PUBLIC "-//W3C//DTD SVG 20010904//EN"
 "http://www.w3.org/TR/2001/REC-SVG-20010904/DTD/svg10.dtd">
<svg version="1.0" xmlns="http://www.w3.org/2000/svg"
 width="640.000000pt" height="640.000000pt" viewBox="0 0 640.000000 640.000000"
 preserveAspectRatio="xMidYMid meet">

<g transform="translate(0.000000,640.000000) scale(0.100000,-0.100000)"
fill="#000000" stroke="none">
<path d="M5400 3406 c0 -889 4 -1616 8 -1616 39 0 204 269 303 491 290 655
310 1392 56 2079 -73 199 -229 483 -349 639 -17 23 -18 -21 -18 -1593z"/>
<path d="M978 4940 c-71 -94 -210 -348 -273 -500 -158 -376 -234 -825 -207
-1209 36 -508 174 -922 446 -1340 l61 -95 3 798 c1 439 1 1154 0 1589 l-3 792
-27 -35z"/>
<path d="M1536 4745 c-3 -9 -5 -244 -3 -523 l2 -507 443 -3 442 -2 -2 -248 -3
-247 -425 -2 c-234 -2 -433 -3 -443 -3 -17 0 -17 -28 -17 -506 1 -278 4 -512
7 -520 4 -12 79 -14 509 -14 l504 0 2 -187 3 -188 200 0 200 0 0 1480 0 1480
-706 3 c-632 2 -707 0 -713 -13z"/>
<path d="M3485 4748 c-3 -7 -4 -674 -3 -1483 l3 -1470 187 -3 188 -2 2 187 3
188 508 3 507 2 0 525 0 525 -442 2 -443 3 0 240 0 240 443 3 442 2 0 525 0
525 -695 0 c-547 0 -697 -3 -700 -12z"/>
</g>
</svg>
